<?xml version="1.0" standalone="no"?><!DOCTYPE svg PUBLIC "-//W3C//DTD SVG 1.1//EN" "http://www.w3.org/Graphics/SVG/1.1/DTD/svg11.dtd"><svg t="1596333152085" class="icon" viewBox="0 0 1024 1024" version="1.1" xmlns="http://www.w3.org/2000/svg" p-id="1147" xmlns:xlink="http://www.w3.org/1999/xlink" width="200" height="200"><defs><style type="text/css"></style></defs><path d="M845.3 667.6l-135 67 34.5-67.2-169.6-35.5L508 734.6l-67.5-102.7L271 667.4l34.6 67.2-126.4-67 329.7-128.1z" p-id="1148"></path><path d="M777.9 611.2L507.3 476.4l-269 134.8 270-171.9z" p-id="1149"></path><path d="M710.5 533L508.1 397.6 305.7 532.8l201.6-171.4z" p-id="1150"></path><path d="M912.9 299.6L777.2 434.7l32.1-101.2-30.4 33.8-68.4-36.7-67.9 67.4-135.3-67.4-134 67.4-67.6-68.2-66.8 37.5-34.4-33.8 33.8 101.2-134.2-134.8 336.6-0.3 67.3-67.5 67.6 67.8z" p-id="1151"></path><path d="M642.6 262.8L508 195.2l-134.8 67.6 135.1-95.1z" p-id="1152"></path><path d="M509 114l65.9 67.2-67.6-47.2-67 47.2z" p-id="1153"></path></svg>